<svg id="Capa_1" enable-background="new 0 0 512 512"  viewBox="0 0 512 512" width="512" xmlns="http://www.w3.org/2000/svg"><g><path d="m241 455.058v56.942h30v-56.943c-4.908 1.393-9.954 2.092-15 2.092-5.047.001-10.092-.698-15-2.091z"/><path d="m301 512h70v-95.16l-70 26.923z"/><path d="m141 512h70v-68.237l-70-26.923z"/><path d="m401 356.792v155.208h55c8.284 0 15-6.716 15-15v-22c0-49.231-27.176-94.617-70-118.208z"/><path d="m41 475v22c0 8.284 6.716 15 15 15h55v-155.208c-42.824 23.591-70 68.977-70 118.208z"/><path d="m316 340c0 33.084-26.916 60-60 60s-60-26.916-60-60v-13.974l-55 18.954v39.718l106.025 40.779c5.787 2.226 12.162 2.226 17.949 0l106.026-40.779v-39.718l-55-18.954z"/><path d="m441 55c0-8.284-6.716-15-15-15s-15 6.716-15 15c0 19.299-15.701 35-35 35h-22.293l-12.911-77.466c-1.206-7.233-7.464-12.534-14.796-12.534h-140c-7.333 0-13.591 5.301-14.796 12.534l-12.911 77.466h-22.293c-19.299 0-35-15.701-35-35 0-8.284-6.716-15-15-15s-15 6.716-15 15c0 35.841 29.159 65 65 65h240c35.841 0 65-29.159 65-65z"/><path d="m411 185c0-13.807-11.193-25-25-25h-5v50h5c13.807 0 25-11.193 25-25z"/><path d="m101 185c0 13.807 11.193 25 25 25h5v-50h-5c-13.807 0-25 11.193-25 25z"/><path d="m226 326.352v13.648c0 16.542 13.458 30 30 30s30-13.458 30-30v-13.648c-9.615 2.377-19.661 3.648-30 3.648s-20.385-1.271-30-3.648z"/><path d="m351 205v-55h-190v55c0 52.467 42.533 95 95 95 52.467 0 95-42.533 95-95zm-59.394 40.251c-9.816 9.817-22.711 14.725-35.606 14.725s-25.79-4.908-35.606-14.725c-5.858-5.858-5.858-15.355 0-21.213 5.857-5.858 15.355-5.858 21.213 0 7.937 7.937 20.851 7.937 28.787 0 5.857-5.858 15.355-5.858 21.213 0 5.857 5.858 5.857 15.355-.001 21.213z"/></g></svg>